<mxfile host="app.diagrams.net" modified="2024-07-11T09:42:23.341Z" agent="Mozilla/5.0 (Windows NT 10.0; Win64; x64) AppleWebKit/537.36 (KHTML, like Gecko) Chrome/126.0.0.0 Safari/537.36" etag="7HuKVynXjbVY2v9urlAB" version="24.6.4" type="github">
  <diagram name="第 1 页" id="F05l9aFnmWJKwojHecaN">
    <mxGraphModel dx="1486" dy="1418" grid="0" gridSize="10" guides="1" tooltips="1" connect="1" arrows="1" fold="1" page="0" pageScale="1" pageWidth="827" pageHeight="1169" math="0" shadow="0">
      <root>
        <mxCell id="0" />
        <mxCell id="1" parent="0" />
        <mxCell id="-9Zzd_e0Hqp7uIsVxWTX-4" value="" style="rounded=0;whiteSpace=wrap;html=1;" vertex="1" parent="1">
          <mxGeometry x="-380" y="-451" width="120" height="60" as="geometry" />
        </mxCell>
        <mxCell id="-9Zzd_e0Hqp7uIsVxWTX-5" value="常规登录流程" style="swimlane;" vertex="1" parent="1">
          <mxGeometry x="-221" y="-657" width="1100" height="917" as="geometry" />
        </mxCell>
        <mxCell id="-9Zzd_e0Hqp7uIsVxWTX-2" value="输入账号与密码" style="rounded=0;whiteSpace=wrap;html=1;" vertex="1" parent="-9Zzd_e0Hqp7uIsVxWTX-5">
          <mxGeometry x="399" y="125" width="120" height="60" as="geometry" />
        </mxCell>
        <mxCell id="-9Zzd_e0Hqp7uIsVxWTX-9" style="edgeStyle=orthogonalEdgeStyle;rounded=0;orthogonalLoop=1;jettySize=auto;html=1;entryX=0.5;entryY=0;entryDx=0;entryDy=0;" edge="1" parent="-9Zzd_e0Hqp7uIsVxWTX-5" source="-9Zzd_e0Hqp7uIsVxWTX-6" target="-9Zzd_e0Hqp7uIsVxWTX-7">
          <mxGeometry relative="1" as="geometry">
            <mxPoint x="132" y="235" as="targetPoint" />
          </mxGeometry>
        </mxCell>
        <mxCell id="-9Zzd_e0Hqp7uIsVxWTX-10" value="是" style="edgeLabel;html=1;align=center;verticalAlign=middle;resizable=0;points=[];" vertex="1" connectable="0" parent="-9Zzd_e0Hqp7uIsVxWTX-9">
          <mxGeometry x="-0.1808" y="-1" relative="1" as="geometry">
            <mxPoint as="offset" />
          </mxGeometry>
        </mxCell>
        <mxCell id="-9Zzd_e0Hqp7uIsVxWTX-17" style="edgeStyle=orthogonalEdgeStyle;rounded=0;orthogonalLoop=1;jettySize=auto;html=1;entryX=0;entryY=0.5;entryDx=0;entryDy=0;" edge="1" parent="-9Zzd_e0Hqp7uIsVxWTX-5" source="-9Zzd_e0Hqp7uIsVxWTX-6" target="-9Zzd_e0Hqp7uIsVxWTX-2">
          <mxGeometry relative="1" as="geometry" />
        </mxCell>
        <mxCell id="-9Zzd_e0Hqp7uIsVxWTX-18" value="否" style="edgeLabel;html=1;align=center;verticalAlign=middle;resizable=0;points=[];" vertex="1" connectable="0" parent="-9Zzd_e0Hqp7uIsVxWTX-17">
          <mxGeometry x="0.0217" y="1" relative="1" as="geometry">
            <mxPoint as="offset" />
          </mxGeometry>
        </mxCell>
        <mxCell id="-9Zzd_e0Hqp7uIsVxWTX-6" value="是否有保存的账号与密码" style="rhombus;whiteSpace=wrap;html=1;" vertex="1" parent="-9Zzd_e0Hqp7uIsVxWTX-5">
          <mxGeometry x="129" y="115" width="178" height="80" as="geometry" />
        </mxCell>
        <mxCell id="-9Zzd_e0Hqp7uIsVxWTX-15" style="edgeStyle=orthogonalEdgeStyle;rounded=0;orthogonalLoop=1;jettySize=auto;html=1;entryX=0.5;entryY=0;entryDx=0;entryDy=0;" edge="1" parent="-9Zzd_e0Hqp7uIsVxWTX-5" source="-9Zzd_e0Hqp7uIsVxWTX-7" target="-9Zzd_e0Hqp7uIsVxWTX-12">
          <mxGeometry relative="1" as="geometry" />
        </mxCell>
        <mxCell id="-9Zzd_e0Hqp7uIsVxWTX-16" value="否" style="edgeLabel;html=1;align=center;verticalAlign=middle;resizable=0;points=[];" vertex="1" connectable="0" parent="-9Zzd_e0Hqp7uIsVxWTX-15">
          <mxGeometry x="0.1323" relative="1" as="geometry">
            <mxPoint as="offset" />
          </mxGeometry>
        </mxCell>
        <mxCell id="-9Zzd_e0Hqp7uIsVxWTX-7" value="是否超过免登录时间" style="rhombus;whiteSpace=wrap;html=1;" vertex="1" parent="-9Zzd_e0Hqp7uIsVxWTX-5">
          <mxGeometry x="129" y="237" width="178" height="80" as="geometry" />
        </mxCell>
        <mxCell id="-9Zzd_e0Hqp7uIsVxWTX-8" value="" style="rhombus;whiteSpace=wrap;html=1;" vertex="1" parent="-9Zzd_e0Hqp7uIsVxWTX-5">
          <mxGeometry x="-25" y="352" width="178" height="80" as="geometry" />
        </mxCell>
        <mxCell id="-9Zzd_e0Hqp7uIsVxWTX-14" style="edgeStyle=orthogonalEdgeStyle;rounded=0;orthogonalLoop=1;jettySize=auto;html=1;entryX=0.5;entryY=0;entryDx=0;entryDy=0;" edge="1" parent="-9Zzd_e0Hqp7uIsVxWTX-5" source="-9Zzd_e0Hqp7uIsVxWTX-11" target="-9Zzd_e0Hqp7uIsVxWTX-6">
          <mxGeometry relative="1" as="geometry" />
        </mxCell>
        <mxCell id="-9Zzd_e0Hqp7uIsVxWTX-11" value="进入登录页面" style="rounded=1;whiteSpace=wrap;html=1;" vertex="1" parent="-9Zzd_e0Hqp7uIsVxWTX-5">
          <mxGeometry x="158" y="36" width="120" height="60" as="geometry" />
        </mxCell>
        <mxCell id="-9Zzd_e0Hqp7uIsVxWTX-12" value="正式进入后台页面" style="rounded=1;whiteSpace=wrap;html=1;" vertex="1" parent="-9Zzd_e0Hqp7uIsVxWTX-5">
          <mxGeometry x="287" y="387" width="120" height="60" as="geometry" />
        </mxCell>
        <mxCell id="-9Zzd_e0Hqp7uIsVxWTX-19" value="输入账号与密码" style="rounded=0;whiteSpace=wrap;html=1;" vertex="1" parent="-9Zzd_e0Hqp7uIsVxWTX-5">
          <mxGeometry x="547" y="308" width="120" height="60" as="geometry" />
        </mxCell>
        <mxCell id="-9Zzd_e0Hqp7uIsVxWTX-20" value="是否勾选了记住账号" style="rhombus;whiteSpace=wrap;html=1;" vertex="1" parent="-9Zzd_e0Hqp7uIsVxWTX-5">
          <mxGeometry x="377" y="235" width="178" height="80" as="geometry" />
        </mxCell>
      </root>
    </mxGraphModel>
  </diagram>
</mxfile>
